<?xml version="1.0" encoding="UTF-8"?>
<svg version="1.1" xmlns="http://www.w3.org/2000/svg" width="128" height="128">
<path d="M0 0 C42.24 0 84.48 0 128 0 C128 42.24 128 84.48 128 128 C85.76 128 43.52 128 0 128 C0 85.76 0 43.52 0 0 Z " fill="#FDE6BA" transform="translate(0,0)"/>
<path d="M0 0 C42.24 0 84.48 0 128 0 C128 42.24 128 84.48 128 128 C85.76 128 43.52 128 0 128 C0 85.76 0 43.52 0 0 Z M53 12 C47.78688525 12.39344262 47.78688525 12.39344262 45 11 C41.9083878 10.91496548 38.99527949 11.22753318 36 12 C34.29006566 13.6222454 32.62652316 15.29413425 31 17 C29.33586228 17.70384841 27.64454656 18.34525936 25.9375 18.9375 C21.25713431 20.65084815 19.24721123 22.4078727 17 27 C16.13192752 29.60421744 15.8150135 31.41717989 15.640625 34.10546875 C14.72229281 46.27457855 12.87921683 57.37520792 7.828125 68.60546875 C5.57886101 75.10923678 8.1550425 82.65795859 10 89 C10.17014266 90.68522256 10.31432153 92.37319521 10.4375 94.0625 C10.79812772 98.28699618 11.67433787 101.37196708 14 105 C14.66 105.33 15.32 105.66 16 106 C17 107.77734375 17 107.77734375 18 109.9375 C19.18413003 112.48615488 19.98757159 113.98757159 22 116 C34.81797042 120.31195851 48.25901918 120.74375481 61.64868164 121.31640625 C62.35172928 121.34894501 63.05477692 121.38148376 63.77912903 121.41500854 C65.71079653 121.50249841 67.64299405 121.57805176 69.57519531 121.65283203 C73.00065805 122.00006671 75.76671149 122.85936611 79 124 C81.2054913 124.34991781 81.2054913 124.34991781 83.3046875 124.4140625 C84.05234375 124.45273438 84.8 124.49140625 85.5703125 124.53125 C86.33085938 124.5621875 87.09140625 124.593125 87.875 124.625 C88.65875 124.66367188 89.4425 124.70234375 90.25 124.7421875 C92.16631367 124.83566622 94.08312319 124.91888495 96 125 C94.65610276 120.49558061 92.84328221 116.7205754 90.4375 112.6875 C89.50744141 111.11548828 89.50744141 111.11548828 88.55859375 109.51171875 C87.22409077 107.14809159 87.22409077 107.14809159 86 106 C84.60922693 105.70427773 83.2120639 105.43834311 81.8125 105.1875 C75.99253718 103.92188904 72.36711156 101.77355013 68.6875 97 C65.97710109 92.18151305 65.62962954 88.55555693 66 83 C66.67320188 80.87080336 67.45839179 78.84631529 68.34375 76.796875 C69.17152719 74.84916924 69.17152719 74.84916924 69 72 C74.62988196 68.24674536 82.3706444 68.28303207 89 69 C93.74776676 70.29860519 97.06125379 72.54874459 100 76.5 C102.88251864 81.75520404 103.00199499 87.17590412 102 93 C100.38522302 96.65699492 98.09901759 99.66376276 95.5703125 102.73828125 C94.86379798 105.54014363 95.35359265 106.1473574 96.703125 108.63671875 C97.53562955 109.99718544 98.3853813 111.34721348 99.25 112.6875 C99.67152344 113.37650391 100.09304687 114.06550781 100.52734375 114.77539062 C102.67431819 118.48262117 102.67431819 118.48262117 106 121 C108.81533746 120.60433363 108.81533746 120.60433363 111.9375 119.8125 C113.52884766 119.45091797 113.52884766 119.45091797 115.15234375 119.08203125 C118.45052842 117.82881156 119.51190987 117.19253379 121 114 C121.05648335 111.35420117 120.95620728 108.98759742 120.6875 106.375 C120.56446161 104.85973749 120.44613587 103.34408643 120.33203125 101.828125 C120.24236084 100.64766602 120.24236084 100.64766602 120.15087891 99.44335938 C119.89736031 95.33783487 119.87374346 91.23724489 119.875 87.125 C119.86859497 85.97523682 119.86859497 85.97523682 119.86206055 84.80224609 C119.86962025 81.60341026 119.98122309 79.05633073 121 76 C121.02535422 72.41056626 120.97295332 68.83559648 120.87304688 65.24804688 C120.81297835 61.18812094 120.93621337 58.58705771 123 55 C122.81434651 49.51422978 122.81434651 49.51422978 120.44140625 44.74609375 C118.25009141 40.57131236 118.93116768 36.44318878 119.29296875 31.8828125 C119.46340428 27.95538514 119.30187643 26.35048365 116.6953125 23.32421875 C115.80585937 22.55722656 114.91640625 21.79023438 114 21 C112.88354624 19.2920306 111.79865858 17.56291243 110.75 15.8125 C108.26665736 12.16084518 106.66012387 10.34050958 102.3125 9.3125 C99.20984372 8.85509241 97.00635264 9.23423093 94 10 C92.18934409 10.0917471 90.37547189 10.13002905 88.5625 10.125 C87.17224609 10.12886719 87.17224609 10.12886719 85.75390625 10.1328125 C83 10 83 10 80.70703125 9.5078125 C76.84391669 8.78313012 73.04743134 8.7757631 69.125 8.75 C68.34769531 8.729375 67.57039063 8.70875 66.76953125 8.6875 C61.37085275 8.65120636 57.8570487 9.67732665 53 12 Z " fill="#CBB995" transform="translate(0,0)"/>
<path d="M0 0 C42.24 0 84.48 0 128 0 C128 42.24 128 84.48 128 128 C99.29 128 70.58 128 41 128 C45.58532538 123.41467462 56.93298698 123.89264223 63.25 123.75 C67.70945168 123.83859838 71.92778783 124.68995536 76.29296875 125.55078125 C80.56843743 126.26027461 84.68222123 126.19176381 89 126 C90.10601562 125.97035156 91.21203125 125.94070312 92.3515625 125.91015625 C99.31730828 125.59904996 105.13757961 124.62158498 111.59375 121.97265625 C113.71323965 121.11591449 115.71870627 120.52179259 117.9375 120 C121.49002566 118.83999162 122.92265521 118.11601719 125 115 C126.48752382 108.37914742 125.80717832 101.85596678 125.0625 95.1875 C123.06269423 75.2392713 123.06269423 75.2392713 125.01953125 68.4765625 C128.9909848 53.27106006 126.21512838 31.42010902 120 17 C117.07422267 12.3404287 114.29823673 8.76607891 109 7 C105.90775724 6.69459331 102.81488281 6.49167689 99.71484375 6.28125 C97 6 97 6 95 5 C92.03373289 4.9007499 89.09143413 4.86019185 86.125 4.8671875 C85.24473145 4.86623077 84.36446289 4.86527405 83.45751953 4.86428833 C81.59472584 4.86360724 79.73192977 4.86545657 77.86914062 4.86962891 C75.01166472 4.87497816 72.154346 4.86968151 69.296875 4.86328125 C67.48958299 4.86394204 65.68229107 4.86522323 63.875 4.8671875 C63.01664551 4.86516327 62.15829102 4.86313904 61.27392578 4.86105347 C57.00199198 4.75357322 57.00199198 4.75357322 53 6 C51.29072609 6.12990847 49.57693127 6.20253756 47.86328125 6.24609375 C46.29416992 6.2934668 46.29416992 6.2934668 44.69335938 6.34179688 C43.01983398 6.38916992 43.01983398 6.38916992 41.3125 6.4375 C25.89871479 5.82578863 25.89871479 5.82578863 12 10 C11.71606022 12.51489516 11.5518876 15.02989582 11.37890625 17.5546875 C11 20 11 20 9 23 C8.90903115 25.93620415 8.90903115 25.93620415 9.125 29.1875 C9.231492 34.54759746 8.59783713 37.41433636 5.8828125 41.9140625 C4.35232138 45.53035568 4.84823069 49.21919025 4.9921875 53.08203125 C4.99923936 55.71590032 4.71849902 57.62009587 4 60.125 C1.65760105 69.32607787 1.48564609 81.12400033 5.21484375 89.91796875 C6.18992062 92.50362036 6.53594962 95.01873393 6.9375 97.75 C7.51540508 101.290893 7.77231749 102.71712173 10.0625 105.5625 C12.65787555 108.82764988 12.60418003 111.51750969 12.82421875 115.59765625 C12.98941487 117.85533661 13.42349044 119.81916478 14 122 C15.19238281 122.26554687 16.38476562 122.53109375 17.61328125 122.8046875 C19.17976175 123.16113217 20.74616398 123.51792097 22.3125 123.875 C23.09818359 124.04902344 23.88386719 124.22304687 24.69335938 124.40234375 C25.45068359 124.57636719 26.20800781 124.75039062 26.98828125 124.9296875 C27.68477783 125.08679199 28.38127441 125.24389648 29.09887695 125.40576172 C31 126 31 126 34 128 C22.78 128 11.56 128 0 128 C0 85.76 0 43.52 0 0 Z " fill="#A49578" transform="translate(0,0)"/>
<path d="M0 0 C4.26108224 1.99282554 7.8567219 4.42551576 10.6171875 8.2734375 C11.94899423 13.1374273 11.94975141 17.11924509 10.5546875 21.9609375 C8.2957647 25.82296679 5.67172302 29.02119742 2.6171875 32.2734375 C4.21341894 36.66727456 6.39743083 40.56339557 8.7421875 44.5859375 C9.11472656 45.23111328 9.48726562 45.87628906 9.87109375 46.54101562 C10.78350963 48.12019695 11.69994259 49.69705614 12.6171875 51.2734375 C9.6171875 53.2734375 9.6171875 53.2734375 7.5612793 53.10742188 C4.12329858 51.63258298 2.99984125 47.98444611 1.4296875 44.7734375 C-0.57243309 40.2292617 -0.57243309 40.2292617 -3.3828125 36.2734375 C-4.77358557 35.97771523 -6.1707486 35.71178061 -7.5703125 35.4609375 C-14.1818228 34.03369083 -18.61647717 30.92294049 -22.3828125 25.2734375 C-24.68660635 19.97471164 -25.47687876 15.23917084 -23.4375 9.7109375 C-18.68030736 -0.58135349 -11.04240671 -3.36702893 0 0 Z " fill="#B9CFFA" transform="translate(89.3828125,70.7265625)"/>
<path d="M0 0 C0.66 0.66 1.32 1.32 2 2 C4.31339691 2.05970422 4.31339691 2.05970422 6.875 1.6875 C8.17050781 1.53861328 8.17050781 1.53861328 9.4921875 1.38671875 C11.93806022 1.05210561 11.93806022 1.05210561 14.04296875 0.47265625 C16.21756426 -0.05254546 18.20167159 -0.20350097 20.4375 -0.25 C21.17871094 -0.27578125 21.91992188 -0.3015625 22.68359375 -0.328125 C25.82060661 0.11624107 27.51943231 1.02130504 30 3 C31.328125 5.92578125 31.328125 5.92578125 32.25 9.3125 C32.56453125 10.42238281 32.8790625 11.53226563 33.203125 12.67578125 C33.94603568 15.77488414 34.52345245 18.85002067 35 22 C32.16895946 21.54091234 29.3473397 21.0722246 26.5390625 20.48828125 C11.11957359 17.37345613 -1.99313866 19.67373012 -15.36328125 28.1796875 C-15.90339844 28.45039062 -16.44351563 28.72109375 -17 29 C-17.66 28.67 -18.32 28.34 -19 28 C-12.93674699 6.13253012 -12.93674699 6.13253012 -8.125 1 C-5.26079994 -0.34785885 -3.12454288 -0.33962423 0 0 Z " fill="#FCE5B8" transform="translate(53,26)"/>
<path d="M0 0 C0.65097656 0.09667969 1.30195312 0.19335938 1.97265625 0.29296875 C3.9375 0.8125 3.9375 0.8125 5.93359375 1.91796875 C8.42847955 3.03167021 9.3617138 2.72779804 11.9375 1.9375 C18.29138851 0.32798851 25.61493647 -0.74745536 31.69140625 2.10546875 C36.80558714 5.99224622 37.98504378 14.68174732 38.9375 20.8125 C39.07229971 23.17801747 39.03841376 25.44102658 38.9375 27.8125 C35.32579154 27.8125 33.89764607 27.52472299 30.6875 26.3125 C17.0942268 22.19874627 3.55336928 24.90398899 -9.0625 30.8125 C-11.22843786 32.09250123 -13.33153189 33.42681956 -15.41601562 34.83520508 C-17.0625 35.8125 -17.0625 35.8125 -19.0625 35.8125 C-19.94971603 24.50049561 -15.35033686 12.13329347 -9.0625 2.8125 C-5.94191664 0.44705781 -3.89694905 -0.65853016 0 0 Z M-9.0625 6.8125 C-10.3220174 9.41398629 -11.3273145 11.78925706 -12.25 14.5 C-12.50410645 15.21027344 -12.75821289 15.92054687 -13.02001953 16.65234375 C-14.76796743 21.64452849 -16.1316675 26.59983801 -17.0625 31.8125 C-11.85609985 29.76923352 -6.75230163 27.50032489 -1.6328125 25.25 C9.71308765 20.68184764 19.1894466 21.39948153 30.9375 23.8125 C32.9362808 24.15306782 34.93601984 24.48817256 36.9375 24.8125 C36.51055989 22.60210083 36.07046022 20.39424139 35.625 18.1875 C35.38136719 16.95773438 35.13773438 15.72796875 34.88671875 14.4609375 C33.27657279 8.13021437 33.27657279 8.13021437 29.01171875 3.453125 C23.00044184 1.59653477 16.9101295 2.90295702 10.94921875 4.359375 C8.53433974 4.90330891 6.39957264 5.11093305 3.9375 4.8125 C3.2775 4.1525 2.6175 3.4925 1.9375 2.8125 C-3.22433458 2.12425539 -5.4012839 3.21421105 -9.0625 6.8125 Z " fill="#100F0C" transform="translate(51.0625,23.1875)"/>
<path d="M0 0 C3.61288551 0.75935853 5.23519531 2.59561743 7.37890625 5.5 C8.81194689 8.36608129 8.6853478 10.31300783 8.37890625 13.5 C6.33896717 17.1578218 4.87471363 19.16946174 1.37890625 21.5 C-2.32804385 21.84323612 -4.91119002 21.79041516 -8.37109375 20.375 C-11.26556152 17.96294353 -12.38758214 16.06347797 -13.62109375 12.5 C-13.62109375 8.2637346 -13.01704519 6.10031348 -10.68359375 2.5625 C-6.91287687 0.02303761 -4.47163674 -0.21325242 0 0 Z " fill="#4E586A" transform="translate(86.62109375,76.5)"/>
<path d="M0 0 C2.01057333 1.49356876 4.03061439 2.87078558 6.1484375 4.203125 C6.9115625 4.739375 7.6746875 5.275625 8.4609375 5.828125 C8.4609375 6.488125 8.4609375 7.148125 8.4609375 7.828125 C2.41374497 6.32614374 -2.04347219 2.94503023 -7.0390625 -0.609375 C-21.24249393 -10.64897 -33.19301345 -14.30152805 -50.7890625 -11.546875 C-60.27093783 -9.27059698 -67.22534918 -3.80400339 -74.17578125 2.76953125 C-77.59150585 5.74488144 -81.84472661 8.828125 -86.5390625 8.828125 C-85.20710464 4.83225142 -83.5815055 4.52560094 -79.9140625 2.578125 C-76.09190822 0.44221526 -72.95484974 -1.46318085 -70.0390625 -4.734375 C-50.13583028 -25.97724785 -19.52864754 -14.66047465 0 0 Z " fill="#0E0C0A" transform="translate(104.5390625,68.171875)"/>
<path d="M0 0 C6.09437678 -0.28084686 10.59408567 0.61078155 15.60546875 4.1953125 C20.989806 9.86303592 22.10305698 14.46600827 22 22.1484375 C21.31469287 27.44090842 18.42484704 30.8958205 15.19921875 34.97265625 C14.2851975 37.44188661 14.2851975 37.44188661 16.16015625 40.54296875 C16.91775068 41.79100589 17.69194022 43.02908601 18.48046875 44.2578125 C22.60546875 50.85372834 22.60546875 50.85372834 22.60546875 54.1953125 C18.11566318 52.71893499 16.50584452 49.23081067 14.35546875 45.3203125 C13.99195312 44.69511719 13.6284375 44.06992188 13.25390625 43.42578125 C11.32976376 40.00427975 10.60546875 38.20688304 10.60546875 34.1953125 C12.1015625 32.1875 12.1015625 32.1875 14.04296875 30.0703125 C17.95743823 25.26835197 18.97261451 21.33960482 18.60546875 15.1953125 C17.61505912 10.24326434 14.6031603 8.09559853 10.60546875 5.1953125 C5.06823438 2.53335896 -0.36003251 2.51065961 -6.39453125 3.1953125 C-9.14014334 4.25131715 -10.99318941 5.44888207 -13.39453125 7.1953125 C-13.39453125 4.1953125 -13.39453125 4.1953125 -11.83203125 2.5703125 C-8.01108155 0.41490498 -4.30839402 0.35141876 0 0 Z " fill="#99AACC" transform="translate(81.39453125,67.8046875)"/>
<path d="M0 0 C3.03379359 0.66656245 4.21477419 1.85286302 5.90234375 4.41796875 C7.07825349 8.10248593 7.23715713 9.7005115 5.58984375 13.23046875 C3.90234375 15.41796875 3.90234375 15.41796875 1.90234375 16.41796875 C-2.47127639 16.91309556 -4.41720869 16.91020741 -8.03515625 14.29296875 C-10.09765625 11.41796875 -10.09765625 11.41796875 -10.66015625 8.41796875 C-9.44522545 1.93833782 -6.37100752 -0.43897072 0 0 Z " fill="#0B0A09" transform="translate(48.09765625,79.58203125)"/>
<path d="M0 0 C3.88596781 2.00258464 6.39313112 4.95279286 8 9 C8.24137178 13.49756077 7.55333627 17.10321363 5.1875 20.9375 C1.69233687 24.23293952 -0.01008449 24.90420173 -4.875 25.375 C-9.21917437 25.24556464 -11.70927549 23.90808213 -15 21 C-17.65829 16.92395534 -18.60516853 13.84134826 -18 9 C-16.74656486 5.6355162 -15.59540652 3.54127865 -12.9375 1.125 C-8.58035626 -0.54369335 -4.59936699 -0.79477062 0 0 Z M-13.0625 4.0625 C-15.39595144 7.60031348 -16 9.7637346 -16 14 C-14.76648839 17.56347797 -13.64446777 19.46294353 -10.75 21.875 C-7.20809325 23.32396185 -4.79755549 23.47469444 -1 23 C2.4121353 20.87689359 4.74948744 18.86522064 6 15 C6.49494564 10.34751094 5.80764101 7.74352135 3 4 C-2.13196997 0.57868669 -7.94983067 0.61927371 -13.0625 4.0625 Z " fill="#DBD9D3" transform="translate(89,75)"/>
<path d="M0 0 C0.33 0 0.66 0 1 0 C1 16.17 1 32.34 1 49 C0.01 49.495 0.01 49.495 -1 50 C-1.06058594 48.99582031 -1.12117188 47.99164063 -1.18359375 46.95703125 C-1.26802769 45.57550851 -1.35267933 44.19399906 -1.4375 42.8125 C-1.48189209 42.08579102 -1.52628418 41.35908203 -1.57202148 40.61035156 C-1.84960864 36.15139449 -2.18385818 31.70174599 -2.5625 27.25 C-3.29338836 17.5687247 -3.85724134 9.09206888 0 0 Z " fill="#AD9D7F" transform="translate(127,63)"/>
<path d="M0 0 C3.8425303 0.72047443 5.45767292 1.57152696 8 4.5625 C8.42242213 7.36438855 8.23816991 9.7044611 8 12.5625 C7.01 13.0575 7.01 13.0575 6 13.5625 C5.79375 12.923125 5.5875 12.28375 5.375 11.625 C4.10879253 9.27610396 4.10879253 9.27610396 1.125 8.5625 C-2.10020265 8.2226442 -2.10020265 8.2226442 -4.25 10.5 C-4.8275 11.180625 -5.405 11.86125 -6 12.5625 C-6.66 12.5625 -7.32 12.5625 -8 12.5625 C-8.4247346 8.2302071 -8.47048413 6.21287512 -5.875 2.625 C-3 0.5625 -3 0.5625 0 0 Z " fill="#D6DCF7" transform="translate(84,78.4375)"/>
<path d="M0 0 C3.61288551 0.75935853 5.23519531 2.59561743 7.37890625 5.5 C8.78348362 8.30915474 8.62785782 10.38810534 8.37890625 13.5 C6.5990622 16.6359157 5.85582418 17.34102736 2.37890625 18.5 C2.70890625 18.005 3.03890625 17.51 3.37890625 17 C4.88128842 13.24404458 4.76457638 10.54953637 4.37890625 6.5 C2.19137342 3.8076519 0.7946667 3.56063173 -2.62109375 3.0625 C-5.68505618 3.27100016 -5.68505618 3.27100016 -7.93359375 5.1875 C-9.76410977 7.69598492 -10.28118579 9.44082833 -10.62109375 12.5 C-11.61109375 12.5 -12.60109375 12.5 -13.62109375 12.5 C-13.38385394 8.4669232 -12.92594971 5.96220098 -10.68359375 2.5625 C-6.91287687 0.02303761 -4.47163674 -0.21325242 0 0 Z " fill="#545D6E" transform="translate(86.62109375,76.5)"/>
<path d="M0 0 C-2.21012902 1.80084587 -3.8777539 2.96216192 -6.625 3.8125 C-9.22426569 4.8267948 -9.22426569 4.8267948 -10.375 7.5625 C-11.17081601 11.93948808 -11.2292589 15.70155919 -10 20 C-7.14015127 23.7336914 -4.47217288 25.59445995 0 27 C0 27.33 0 27.66 0 28 C-3.81048864 28 -5.97246785 27.79544477 -9.0234375 25.43359375 C-12.01386329 22.31500685 -14.4396937 19.4829176 -14.8125 15.0625 C-14.34612281 9.94248959 -11.25655152 5.81911881 -8 2 C-4.77208445 -0.1519437 -3.71599191 -0.20086443 0 0 Z " fill="#9BAED2" transform="translate(83,73)"/>
<path d="M0 0 C1.8125 1.125 1.8125 1.125 3 3 C3.1875 6.1875 3.1875 6.1875 3 9 C2.01 9.495 2.01 9.495 1 10 C0.67 8.68 0.34 7.36 0 6 C-4.07964281 7.30155006 -4.07964281 7.30155006 -8 9 C-8.89674777 6.48910624 -9.13172674 5.35464891 -8.1875 2.8125 C-6.059897 -0.43489405 -3.65741131 -0.35682062 0 0 Z " fill="#E4DEED" transform="translate(49,82)"/>
<path d="M0 0 C0.99 0.33 1.98 0.66 3 1 C-3.38873004 7.58837786 -9.48435741 13.3294644 -18 17 C-18.66 17 -19.32 17 -20 17 C-18.66804214 13.00412642 -17.042443 12.69747594 -13.375 10.75 C-8.05548902 7.77285126 -3.97399344 4.6036755 0 0 Z " fill="#050403" transform="translate(38,60)"/>
<path d="M0 0 C0.66 0 1.32 0 2 0 C3.74773661 3.49547322 2.8363668 7.28138452 2 11 C-0.12342847 14.44141855 -2.11153775 16.74196809 -6 18 C-9.25 18.125 -9.25 18.125 -12 18 C-12.33 17.34 -12.66 16.68 -13 16 C-12.09507813 15.88785156 -12.09507813 15.88785156 -11.171875 15.7734375 C-6.84456876 15.06152583 -4.57356645 14.58755588 -1.4375 11.375 C0.34634441 7.18684357 0.31097468 4.50913284 0 0 Z " fill="#DEDCD7" transform="translate(94,82)"/>
<path d="M0 0 C4.16839515 -0.28474806 5.68022389 0.02323345 8.93359375 2.734375 C9.59359375 3.559375 10.25359375 4.384375 10.93359375 5.234375 C9.94359375 5.234375 8.95359375 5.234375 7.93359375 5.234375 C7.60359375 4.904375 7.27359375 4.574375 6.93359375 4.234375 C4.07481466 3.99736261 1.23476078 3.81218318 -1.62890625 3.671875 C-2.43521484 3.62869141 -3.24152344 3.58550781 -4.07226562 3.54101562 C-6.0700943 3.43462238 -8.06822695 3.33396612 -10.06640625 3.234375 C-9.73640625 2.574375 -9.40640625 1.914375 -9.06640625 1.234375 C-6.04773502 0.61831965 -3.05685282 0.34671299 0 0 Z " fill="#161410" transform="translate(48.06640625,68.765625)"/>
<path d="M0 0 C0.33 0.66 0.66 1.32 1 2 C0.34773438 2.10957031 -0.30453125 2.21914063 -0.9765625 2.33203125 C-6.18288442 3.27654098 -10.26541653 4.57496944 -15 7 C-15.99 6.67 -16.98 6.34 -18 6 C-15.54403107 3.12229903 -13.09110405 2.03312874 -9.5625 0.75 C-8.61503906 0.39421875 -7.66757812 0.0384375 -6.69140625 -0.328125 C-3.92765678 -1.01805956 -2.59774222 -1.11247275 0 0 Z " fill="#12110D" transform="translate(58,54)"/>
<path d="M0 0 C3.57763189 -0.32523926 5.39542581 -0.42956587 8.375 1.6875 C10.27258004 4.38790237 10.35882213 5.77060081 10 9 C9.01 9.495 9.01 9.495 8 10 C7.814375 9.05125 7.62875 8.1025 7.4375 7.125 C6.26599195 3.61628301 6.26599195 3.61628301 2.375 2.625 C1.26125 2.41875 0.1475 2.2125 -1 2 C-0.67 1.34 -0.34 0.68 0 0 Z " fill="#040404" transform="translate(44,80)"/>
<path d="M0 0 C0.66 0.33 1.32 0.66 2 1 C2 1.66 2 2.32 2 3 C0.71086513 3.67154933 -0.58140204 4.33708859 -1.875 5 C-2.59429688 5.37125 -3.31359375 5.7425 -4.0546875 6.125 C-6 7 -6 7 -8 7 C-6.88424427 3.65273281 -6.48655378 3.37920252 -3.5625 1.75 C-2.386875 1.1725 -1.21125 0.595 0 0 Z " fill="#12100D" transform="translate(26,70)"/>
<path d="M0 0 C2.3125 1.9375 2.3125 1.9375 4 4 C4 4.66 4 5.32 4 6 C3.01 5.67 2.02 5.34 1 5 C1 4.34 1 3.68 1 3 C-2.63 2.34 -6.26 1.68 -10 1 C-10 0.67 -10 0.34 -10 0 C-6.31616882 -0.94727087 -3.63843334 -1.21281111 0 0 Z " fill="#D3D1CB" transform="translate(91,76)"/>
<path d="M0 0 C0.66 0.33 1.32 0.66 2 1 C1.54625 1.556875 1.0925 2.11375 0.625 2.6875 C-1.11050352 4.94954292 -1.11050352 4.94954292 -2 7.6875 C-2.33 8.450625 -2.66 9.21375 -3 10 C-3.99 10.33 -4.98 10.66 -6 11 C-5.57576756 9.53775201 -5.13509755 8.08026588 -4.6875 6.625 C-4.44386719 5.81289063 -4.20023438 5.00078125 -3.94921875 4.1640625 C-3 2 -3 2 0 0 Z " fill="#0A0907" transform="translate(43,27)"/>
<path d="M0 0 C1.25541557 3.76624671 0.37061958 5.37188934 -1 9 C-1.99 9 -2.98 9 -4 9 C-3.71848913 7.68528432 -3.42446661 6.37324233 -3.125 5.0625 C-2.96257813 4.33160156 -2.80015625 3.60070313 -2.6328125 2.84765625 C-2 1 -2 1 0 0 Z " fill="#14120E" transform="translate(38,37)"/>
<path d="M0 0 C0.66 0 1.32 0 2 0 C2.66 2.97 3.32 5.94 4 9 C3.01 9 2.02 9 1 9 C0.67 6.03 0.34 3.06 0 0 Z " fill="#D3D2D0" transform="translate(71,84)"/>
<path d="M0 0 C-2.64 1.65 -5.28 3.3 -8 5 C-8 4.01 -8 3.02 -8 2 C-4.90310319 -1.09689681 -4.48560889 -1.12140222 0 0 Z " fill="#191714" transform="translate(76,70)"/>
<path d="M0 0 C0.33 0.66 0.66 1.32 1 2 C-1.64 2.33 -4.28 2.66 -7 3 C-7.33 2.01 -7.66 1.02 -8 0 C-4.97878489 -0.97110486 -2.99536737 -1.13617383 0 0 Z " fill="#23201A" transform="translate(58,54)"/>
<path d="M0 0 C0.33 0 0.66 0 1 0 C1.2253459 3.30507324 1.34500438 5.39213514 -0.3125 8.3125 C-2 10 -2 10 -5 11 C-3.84826645 8.53199953 -2.95216435 6.95216435 -1 5 C-0.35232207 2.42938689 -0.35232207 2.42938689 0 0 Z " fill="#5B6374" transform="translate(94,84)"/>
</svg>
